:SAMPLES-PER-SECOND 30
:FULLY-SPECIFIED
:DEGREES
1
root  9.31545 40.8066 -0.943061 -152.785 -86.4508 149.734
RightUpLeg  -0.574312 -9.11992 -6.22152
RightLeg  8.54086 -2.12367 2.83335
RightFoot  -4.80347 0.00298002 -0.540021
RightToes  0.00048216 0.542163 -0.142577
Spine  5.9396 0.29022 -3.4384
Spine1  -1.81578 -0.11654 2.26336
HEad  -3.05866 3.80738 -2.15789
LeftShoulder1  0.746666 -2.1505 -5.44856
LeftArm  -17.2611 10.0612 -3.32108
LeftForeArm  9.28227 0.056146 -1.42247
LeftHand  -0.25398 0.0180481 5.50724
RightShoulder  0.442316 -0.289702 6.05343
RightArm  -22.0866 -2.49313 3.31025
RightForeArm  2.68837 0.450249 2.07372
RightHand  -1.39438 4.23476 -17.0423
LeftUpLeg  0.730119 4.14221 2.00805
LeftLeg  4.18089 9.09101 -2.66144
LeftFoot  -2.41558 0.0816242 -0.891819
LeftToes  1.06243e-005 4.65856e-005 -8.18505e-006
2
root  9.29419 40.8067 -0.941311 -153.227 -86.3994 150.262
RightUpLeg  -0.644031 -9.11131 -6.20697
RightLeg  8.53986 -2.09689 2.83372
RightFoot  -4.81737 0.000933089 -0.508227
RightToes  0.00048216 0.542163 -0.142577
Spine  5.87368 0.29022 -3.43814
Spine1  -1.79916 -0.109419 2.23904
HEad  -2.99052 3.76125 -2.20745
LeftShoulder1  0.747737 -2.09732 -5.4881
LeftArm  -17.4787 10.0142 -3.35536
LeftForeArm  9.15064 0.136249 -1.32784
LeftHand  -0.25398 0.0180481 5.50724
RightShoulder  0.457377 -0.18765 6.0885
RightArm  -22.108 -2.50253 3.25229
RightForeArm  2.89778 0.463508 2.05833
RightHand  -1.38153 4.26986 -16.8326
LeftUpLeg  0.681658 4.13935 2.00222
LeftLeg  4.17858 9.16483 -2.65895
LeftFoot  -2.44344 0.0796854 -0.861685
LeftToes  1.06243e-005 4.65856e-005 -8.18505e-006
3
root  9.2516 40.8079 -0.933321 -153.956 -86.302 151.091
RightUpLeg  -0.681354 -9.11515 -6.21762
RightLeg  8.50303 -1.99568 2.85436
RightFoot  -4.84374 -0.00146438 -0.470988
RightToes  0.00048216 0.542163 -0.142577
Spine  5.784 0.290219 -3.41737
Spine1  -1.73909 -0.0849073 2.15353
HEad  -2.85794 3.65506 -2.21617
LeftShoulder1  0.756713 -2.11843 -5.62902
LeftArm  -17.6528 9.9731 -3.27531
LeftForeArm  8.89143 0.268333 -1.24232
LeftHand  -0.25398 0.0180481 5.50724
RightShoulder  0.475625 -0.0713864 6.15966
RightArm  -22.1828 -2.47296 3.16606
RightForeArm  3.43319 0.466109 2.00711
RightHand  -1.37104 4.38337 -16.5252
LeftUpLeg  0.665481 4.11076 1.97901
LeftLeg  4.14662 9.30685 -2.64745
LeftFoot  -2.50081 0.0824769 -0.905071
LeftToes  1.06243e-005 4.65856e-005 -8.18505e-006
4
root  9.20241 40.8113 -0.921241 -154.704 -86.2059 151.879
RightUpLeg  -0.623556 -9.11751 -6.24977
RightLeg  8.43076 -1.88142 2.88307
RightFoot  -4.8544 -0.00219577 -0.459628
RightToes  0.00048216 0.542163 -0.142577
Spine  5.72617 0.288802 -3.3323
Spine1  -1.64396 -0.0462034 1.96684
HEad  -2.708 3.48506 -2.12854
LeftShoulder1  0.777818 -2.23622 -5.73432
LeftArm  -17.5718 9.99624 -3.1132
LeftForeArm  8.72135 0.341886 -1.26158
LeftHand  -0.25398 0.0180481 5.50724
RightShoulder  0.482843 -0.0396207 6.26038
RightArm  -22.2107 -2.38721 3.12222
RightForeArm  3.86996 0.466172 1.97735
RightHand  -1.37058 4.4491 -16.4154
LeftUpLeg  0.744842 4.07238 1.9593
LeftLeg  4.06496 9.4345 -2.64561
LeftFoot  -2.55626 0.0897789 -1.01856
LeftToes  1.06243e-005 4.65856e-005 -8.18505e-006
